<svg xmlns="http://www.w3.org/2000/svg" xmlns:xlink="http://www.w3.org/1999/xlink" width="500" zoomAndPan="magnify" viewBox="0 0 375 374.999991" height="500" preserveAspectRatio="xMidYMid meet" version="1.0"><defs><g/><clipPath id="c7bb20fb08"><path d="M 37.5 43.453125 L 337.5 43.453125 L 337.5 343.453125 L 37.5 343.453125 Z M 37.5 43.453125 " clip-rule="nonzero"/></clipPath><clipPath id="0a7824e661"><path d="M 187.5 343.453125 C 147.453125 343.453125 109.742188 327.863281 81.445312 299.507812 C 53.085938 271.210938 37.5 233.5 37.5 193.453125 C 37.5 153.402344 53.085938 115.695312 81.445312 87.398438 C 109.742188 59.039062 147.453125 43.453125 187.5 43.453125 C 227.546875 43.453125 265.257812 59.039062 293.554688 87.398438 C 321.914062 115.753906 337.5 153.402344 337.5 193.453125 C 337.5 233.5 321.914062 271.210938 293.554688 299.507812 C 265.257812 327.863281 227.546875 343.453125 187.5 343.453125 Z M 187.5 52.445312 C 149.851562 52.445312 114.417969 67.132812 87.800781 93.75 C 61.179688 120.371094 46.492188 155.800781 46.492188 193.453125 C 46.492188 231.101562 61.179688 266.535156 87.800781 293.152344 C 114.417969 319.769531 149.851562 334.457031 187.5 334.457031 C 225.148438 334.457031 260.582031 319.769531 287.199219 293.152344 C 313.820312 266.535156 328.507812 231.101562 328.507812 193.453125 C 328.507812 155.800781 313.820312 120.371094 287.199219 93.75 C 260.582031 67.132812 225.148438 52.445312 187.5 52.445312 Z M 187.5 52.445312 " clip-rule="nonzero"/></clipPath><clipPath id="87b510a2ac"><path d="M 188 118.746094 L 220 118.746094 L 220 181 L 188 181 Z M 188 118.746094 " clip-rule="nonzero"/></clipPath><clipPath id="ac3852e7a0"><path d="M 155 118.746094 L 188 118.746094 L 188 181 L 155 181 Z M 155 118.746094 " clip-rule="nonzero"/></clipPath><clipPath id="5d0b8e404c"><path d="M 146.34375 130 L 174 130 L 174 182.496094 L 146.34375 182.496094 Z M 146.34375 130 " clip-rule="nonzero"/></clipPath><clipPath id="e2dd47ac0c"><path d="M 201 130 L 228.84375 130 L 228.84375 182.496094 L 201 182.496094 Z M 201 130 " clip-rule="nonzero"/></clipPath></defs><rect x="-37.5" width="450" fill="#ffffff" y="-37.499999" height="449.999989" fill-opacity="1"/><g clip-path="url(#c7bb20fb08)"><g clip-path="url(#0a7824e661)"><path fill="#dbbb68" d="M 37.5 43.453125 L 337.5 43.453125 L 337.5 343.453125 L 37.5 343.453125 Z M 37.5 43.453125 " fill-opacity="1" fill-rule="nonzero"/></g></g><g clip-path="url(#87b510a2ac)"><path fill="#dbbb68" d="M 219.117188 118.746094 L 199.476562 126.582031 C 196.203125 127.886719 194.625 131.675781 196.105469 134.871094 C 196.722656 136.195312 197.601562 137.320312 198.839844 138.621094 C 195.863281 141.726562 190.527344 150.925781 189.035156 157.832031 C 189.933594 158.394531 190.515625 159.375 190.515625 160.507812 C 190.515625 162.027344 189.429688 163.296875 188.003906 163.59375 L 188.003906 180.304688 L 219.117188 166.816406 L 219.117188 118.746094 " fill-opacity="1" fill-rule="nonzero"/></g><g clip-path="url(#ac3852e7a0)"><path fill="#dbbb68" d="M 187.085938 163.640625 L 187.085938 180.304688 L 155.972656 166.816406 L 155.972656 118.746094 L 161.582031 120.980469 C 163.351562 121.6875 164.511719 123.398438 164.511719 125.304688 L 164.511719 146.046875 L 166.460938 144.652344 L 168.40625 146.046875 L 168.40625 127.632812 C 168.40625 125.75 170.304688 124.464844 172.054688 125.160156 L 175.613281 126.582031 C 178.890625 127.890625 180.464844 131.679688 178.988281 134.871094 C 178.371094 136.191406 177.484375 137.320312 176.238281 138.621094 C 179.191406 141.703125 184.480469 150.753906 186.011719 157.644531 C 184.9375 158.152344 184.171875 159.238281 184.171875 160.5 C 184.171875 162.164062 185.46875 163.523438 187.085938 163.640625 " fill-opacity="1" fill-rule="nonzero"/></g><g clip-path="url(#5d0b8e404c)"><path fill="#dbbb68" d="M 171.417969 178.175781 L 150.652344 178.175781 L 150.652344 133.050781 C 150.652344 131.992188 149.925781 131.007812 148.882812 130.835938 C 147.546875 130.617188 146.394531 131.644531 146.394531 132.933594 L 146.394531 180.304688 C 146.394531 181.480469 147.347656 182.429688 148.523438 182.429688 L 171.53125 182.429688 C 172.824219 182.429688 173.847656 181.28125 173.628906 179.945312 C 173.460938 178.898438 172.480469 178.175781 171.417969 178.175781 " fill-opacity="1" fill-rule="nonzero"/></g><g clip-path="url(#e2dd47ac0c)"><path fill="#dbbb68" d="M 226.109375 130.835938 C 225.066406 131.007812 224.339844 131.992188 224.339844 133.050781 L 224.339844 178.175781 L 203.574219 178.175781 C 202.511719 178.175781 201.53125 178.898438 201.359375 179.945312 C 201.144531 181.28125 202.164062 182.429688 203.457031 182.429688 L 226.46875 182.429688 C 227.644531 182.429688 228.597656 181.480469 228.597656 180.304688 L 228.597656 132.933594 C 228.597656 131.644531 227.441406 130.617188 226.109375 130.835938 " fill-opacity="1" fill-rule="nonzero"/></g><path fill="#dbbb68" d="M 189.359375 142.554688 C 189.359375 141.707031 188.785156 140.992188 188.003906 140.773438 L 188.003906 128.367188 L 186.984375 128.367188 L 186.984375 140.773438 C 186.207031 140.992188 185.632812 141.707031 185.632812 142.554688 C 185.632812 143.589844 186.464844 144.421875 187.496094 144.421875 C 188.523438 144.421875 189.359375 143.589844 189.359375 142.554688 " fill-opacity="1" fill-rule="nonzero"/><path stroke-linecap="butt" transform="matrix(0.75, 0, 0, 0.75, 252.23609, 229.401503)" fill="none" stroke-linejoin="miter" d="M -0.00228712 2.501121 L 39.940424 2.501121 " stroke="#dbbb68" stroke-width="5" stroke-opacity="1" stroke-miterlimit="4"/><path stroke-linecap="butt" transform="matrix(0.75, 0, 0, 0.75, 92.806755, 229.401503)" fill="none" stroke-linejoin="miter" d="M 0.00245139 2.501121 L 39.945162 2.501121 " stroke="#dbbb68" stroke-width="5" stroke-opacity="1" stroke-miterlimit="4"/><g fill="#dbbb68" fill-opacity="1"><g transform="translate(128.906246, 215.701774)"><g><path d="M 11.859375 0.125 C 11.390625 0.0703125 10.972656 0.0351562 10.609375 0.015625 C 10.242188 0.00390625 9.898438 0 9.578125 0 L 1.203125 0 L 1.125 -0.921875 L 2.640625 -1.265625 C 2.648438 -1.347656 2.660156 -1.535156 2.671875 -1.828125 C 2.691406 -2.117188 2.707031 -2.515625 2.71875 -3.015625 C 2.726562 -3.523438 2.734375 -4.140625 2.734375 -4.859375 L 2.734375 -9.453125 C 2.734375 -10.179688 2.726562 -10.800781 2.71875 -11.3125 C 2.707031 -11.820312 2.691406 -12.222656 2.671875 -12.515625 C 2.660156 -12.816406 2.648438 -13 2.640625 -13.0625 L 1.125 -13.40625 L 1.203125 -14.328125 L 9.03125 -14.328125 C 9.257812 -14.328125 9.503906 -14.328125 9.765625 -14.328125 C 10.023438 -14.328125 10.296875 -14.335938 10.578125 -14.359375 C 10.867188 -14.390625 11.164062 -14.410156 11.46875 -14.421875 L 11.96875 -11.203125 L 10.859375 -11.03125 L 10.0625 -13.09375 C 9.925781 -13.125 9.773438 -13.140625 9.609375 -13.140625 C 9.453125 -13.148438 9.285156 -13.15625 9.109375 -13.15625 L 6.34375 -13.15625 C 6.039062 -13.15625 5.769531 -13.148438 5.53125 -13.140625 C 5.289062 -13.140625 5.054688 -13.125 4.828125 -13.09375 C 4.828125 -13.019531 4.820312 -12.832031 4.8125 -12.53125 C 4.8125 -12.226562 4.804688 -11.878906 4.796875 -11.484375 C 4.785156 -11.097656 4.78125 -10.710938 4.78125 -10.328125 L 4.78125 -3.734375 C 4.78125 -3.410156 4.785156 -3.082031 4.796875 -2.75 C 4.804688 -2.414062 4.8125 -2.117188 4.8125 -1.859375 C 4.820312 -1.609375 4.828125 -1.425781 4.828125 -1.3125 C 5.078125 -1.300781 5.320312 -1.285156 5.5625 -1.265625 C 5.8125 -1.253906 6.085938 -1.25 6.390625 -1.25 L 8.765625 -1.25 C 9.117188 -1.25 9.410156 -1.25 9.640625 -1.25 C 9.867188 -1.257812 10.046875 -1.269531 10.171875 -1.28125 C 10.304688 -1.300781 10.414062 -1.320312 10.5 -1.34375 L 11.765625 -3.65625 L 12.859375 -3.4375 Z M 9.15625 -5 L 8.859375 -6.671875 C 8.773438 -6.703125 8.632812 -6.722656 8.4375 -6.734375 C 8.25 -6.753906 8.015625 -6.765625 7.734375 -6.765625 L 5.890625 -6.765625 C 5.671875 -6.765625 5.4375 -6.753906 5.1875 -6.734375 C 4.9375 -6.722656 4.679688 -6.707031 4.421875 -6.6875 L 4.421875 -8.03125 C 4.679688 -8.019531 4.9375 -8.007812 5.1875 -8 C 5.4375 -7.988281 5.671875 -7.984375 5.890625 -7.984375 L 7.734375 -7.984375 C 8.015625 -7.984375 8.25 -7.988281 8.4375 -8 C 8.632812 -8.007812 8.773438 -8.03125 8.859375 -8.0625 L 9.15625 -9.734375 L 10.203125 -9.734375 L 10.203125 -5 Z M 9.15625 -5 "/></g></g></g><g fill="#dbbb68" fill-opacity="1"><g transform="translate(142.478343, 215.701774)"><g><path d="M 1.203125 -14.328125 L 7.109375 -14.328125 C 9.679688 -14.328125 11.6875 -13.710938 13.125 -12.484375 C 14.5625 -11.253906 15.28125 -9.535156 15.28125 -7.328125 C 15.28125 -5.890625 14.945312 -4.617188 14.28125 -3.515625 C 13.613281 -2.410156 12.6875 -1.546875 11.5 -0.921875 C 10.3125 -0.304688 8.941406 0 7.390625 0 L 1.203125 0 L 1.140625 -0.921875 L 2.640625 -1.265625 C 2.671875 -1.410156 2.695312 -1.828125 2.71875 -2.515625 C 2.75 -3.203125 2.765625 -3.984375 2.765625 -4.859375 L 2.765625 -9.453125 C 2.765625 -10.421875 2.75 -11.238281 2.71875 -11.90625 C 2.695312 -12.582031 2.671875 -12.96875 2.640625 -13.0625 L 1.140625 -13.40625 Z M 4.890625 -13.015625 C 4.890625 -12.847656 4.882812 -12.640625 4.875 -12.390625 C 4.863281 -12.140625 4.851562 -11.785156 4.84375 -11.328125 C 4.832031 -10.867188 4.828125 -10.242188 4.828125 -9.453125 L 4.828125 -4.859375 C 4.828125 -4.367188 4.832031 -3.90625 4.84375 -3.46875 C 4.851562 -3.039062 4.867188 -2.65625 4.890625 -2.3125 C 4.921875 -1.976562 4.941406 -1.695312 4.953125 -1.46875 C 5.472656 -1.40625 5.941406 -1.351562 6.359375 -1.3125 C 6.773438 -1.269531 7.175781 -1.25 7.5625 -1.25 C 9.289062 -1.25 10.601562 -1.707031 11.5 -2.625 C 12.394531 -3.539062 12.84375 -4.867188 12.84375 -6.609375 C 12.84375 -7.671875 12.710938 -8.609375 12.453125 -9.421875 C 12.191406 -10.234375 11.800781 -10.921875 11.28125 -11.484375 C 10.769531 -12.046875 10.144531 -12.46875 9.40625 -12.75 C 8.664062 -13.039062 7.8125 -13.1875 6.84375 -13.1875 C 6.539062 -13.1875 6.226562 -13.171875 5.90625 -13.140625 C 5.582031 -13.117188 5.242188 -13.078125 4.890625 -13.015625 Z M 4.890625 -13.015625 "/></g></g></g><g fill="#dbbb68" fill-opacity="1"><g transform="translate(159.126131, 215.701774)"><g><path d="M 1.125 -14.328125 L 6.296875 -14.328125 L 6.375 -13.40625 L 4.859375 -13.03125 C 4.859375 -12.96875 4.847656 -12.820312 4.828125 -12.59375 C 4.816406 -12.363281 4.804688 -12.003906 4.796875 -11.515625 C 4.785156 -11.035156 4.78125 -10.347656 4.78125 -9.453125 L 4.78125 -5.6875 C 4.800781 -4.664062 4.96875 -3.835938 5.28125 -3.203125 C 5.601562 -2.578125 6.046875 -2.117188 6.609375 -1.828125 C 7.179688 -1.535156 7.832031 -1.390625 8.5625 -1.390625 C 9.28125 -1.390625 9.90625 -1.535156 10.4375 -1.828125 C 10.96875 -2.117188 11.378906 -2.59375 11.671875 -3.25 C 11.960938 -3.914062 12.109375 -4.785156 12.109375 -5.859375 L 12.109375 -9.015625 C 12.109375 -9.742188 12.097656 -10.390625 12.078125 -10.953125 C 12.066406 -11.515625 12.050781 -11.976562 12.03125 -12.34375 C 12.019531 -12.707031 12 -12.9375 11.96875 -13.03125 L 10.25 -13.40625 L 10.328125 -14.328125 L 15.0625 -14.328125 L 15.140625 -13.40625 L 13.640625 -13.03125 C 13.640625 -12.988281 13.628906 -12.835938 13.609375 -12.578125 C 13.597656 -12.328125 13.585938 -11.914062 13.578125 -11.34375 C 13.578125 -10.78125 13.578125 -10.003906 13.578125 -9.015625 L 13.578125 -5.734375 C 13.578125 -4.367188 13.347656 -3.242188 12.890625 -2.359375 C 12.429688 -1.484375 11.800781 -0.832031 11 -0.40625 C 10.207031 0.0078125 9.316406 0.21875 8.328125 0.21875 C 6.554688 0.21875 5.164062 -0.265625 4.15625 -1.234375 C 3.15625 -2.210938 2.65625 -3.597656 2.65625 -5.390625 L 2.65625 -9.453125 C 2.65625 -10.347656 2.644531 -11.039062 2.625 -11.53125 C 2.613281 -12.03125 2.601562 -12.394531 2.59375 -12.625 C 2.59375 -12.851562 2.582031 -12.988281 2.5625 -13.03125 L 1.078125 -13.40625 Z M 1.125 -14.328125 "/></g></g></g><g fill="#dbbb68" fill-opacity="1"><g transform="translate(175.334534, 215.701774)"><g><path d="M 12.640625 -14.421875 L 13.1875 -10.46875 L 12.109375 -10.359375 L 11.078125 -13.109375 C 10.953125 -13.140625 10.800781 -13.160156 10.625 -13.171875 C 10.457031 -13.179688 10.3125 -13.1875 10.1875 -13.1875 L 9.296875 -13.1875 C 9.140625 -13.1875 8.921875 -13.1875 8.640625 -13.1875 C 8.367188 -13.1875 8.117188 -13.175781 7.890625 -13.15625 C 7.890625 -13.03125 7.882812 -12.726562 7.875 -12.25 C 7.863281 -11.769531 7.859375 -11.210938 7.859375 -10.578125 C 7.859375 -9.941406 7.859375 -9.328125 7.859375 -8.734375 L 7.859375 -5.4375 C 7.859375 -4.414062 7.863281 -3.523438 7.875 -2.765625 C 7.894531 -2.015625 7.90625 -1.515625 7.90625 -1.265625 L 9.984375 -0.984375 L 9.90625 0 L 3.6875 0 L 3.640625 -0.984375 L 5.6875 -1.265625 C 5.6875 -1.515625 5.691406 -2.015625 5.703125 -2.765625 C 5.722656 -3.523438 5.734375 -4.414062 5.734375 -5.4375 L 5.734375 -8.734375 C 5.734375 -9.328125 5.734375 -9.941406 5.734375 -10.578125 C 5.734375 -11.210938 5.734375 -11.769531 5.734375 -12.25 C 5.734375 -12.726562 5.726562 -13.03125 5.71875 -13.15625 C 5.5 -13.175781 5.25 -13.1875 4.96875 -13.1875 C 4.695312 -13.1875 4.484375 -13.1875 4.328125 -13.1875 L 3.375 -13.1875 C 3.238281 -13.1875 3.09375 -13.179688 2.9375 -13.171875 C 2.78125 -13.160156 2.628906 -13.140625 2.484375 -13.109375 L 1.484375 -10.328125 L 0.390625 -10.46875 L 0.921875 -14.421875 C 1.109375 -14.410156 1.300781 -14.398438 1.5 -14.390625 C 1.707031 -14.378906 1.910156 -14.363281 2.109375 -14.34375 C 2.316406 -14.332031 2.515625 -14.328125 2.703125 -14.328125 C 2.898438 -14.328125 3.097656 -14.328125 3.296875 -14.328125 L 10.28125 -14.328125 C 10.457031 -14.328125 10.644531 -14.328125 10.84375 -14.328125 C 11.050781 -14.328125 11.253906 -14.332031 11.453125 -14.34375 C 11.648438 -14.363281 11.847656 -14.378906 12.046875 -14.390625 C 12.253906 -14.398438 12.453125 -14.410156 12.640625 -14.421875 Z M 12.640625 -14.421875 "/></g></g></g><g fill="#dbbb68" fill-opacity="1"><g transform="translate(188.931041, 215.701774)"><g><path d="M 1.265625 0 L 1.21875 -0.921875 L 2.703125 -1.296875 C 2.703125 -1.410156 2.707031 -1.582031 2.71875 -1.8125 C 2.726562 -2.050781 2.734375 -2.332031 2.734375 -2.65625 C 2.734375 -2.988281 2.738281 -3.34375 2.75 -3.71875 C 2.757812 -4.101562 2.765625 -4.484375 2.765625 -4.859375 L 2.765625 -9.453125 C 2.765625 -10.203125 2.757812 -10.832031 2.75 -11.34375 C 2.738281 -11.851562 2.722656 -12.25 2.703125 -12.53125 C 2.691406 -12.820312 2.675781 -13 2.65625 -13.0625 L 1.140625 -13.40625 L 1.21875 -14.328125 L 6.5625 -14.328125 C 8.09375 -14.328125 9.257812 -14.03125 10.0625 -13.4375 C 10.875 -12.84375 11.28125 -11.96875 11.28125 -10.8125 C 11.28125 -10.019531 11.0625 -9.304688 10.625 -8.671875 C 10.1875 -8.046875 9.570312 -7.554688 8.78125 -7.203125 C 7.988281 -6.847656 7.085938 -6.671875 6.078125 -6.671875 L 4.515625 -6.671875 L 4.515625 -7.765625 L 5.90625 -7.765625 C 6.914062 -7.765625 7.703125 -8.015625 8.265625 -8.515625 C 8.828125 -9.023438 9.109375 -9.726562 9.109375 -10.625 C 9.109375 -11.488281 8.863281 -12.140625 8.375 -12.578125 C 7.882812 -13.023438 7.1875 -13.25 6.28125 -13.25 L 4.859375 -13.25 C 4.835938 -13.21875 4.820312 -13.15625 4.8125 -13.0625 C 4.8125 -12.96875 4.8125 -12.804688 4.8125 -12.578125 C 4.8125 -12.347656 4.8125 -12.007812 4.8125 -11.5625 C 4.8125 -11.125 4.8125 -10.539062 4.8125 -9.8125 L 4.8125 -4.859375 C 4.8125 -4.160156 4.8125 -3.570312 4.8125 -3.09375 C 4.820312 -2.625 4.835938 -2.242188 4.859375 -1.953125 C 4.890625 -1.671875 4.914062 -1.453125 4.9375 -1.296875 L 6.375 -0.921875 L 6.296875 0 Z M 12.84375 0.25 C 12.125 0.25 11.488281 0.113281 10.9375 -0.15625 C 10.382812 -0.425781 9.847656 -0.878906 9.328125 -1.515625 C 8.816406 -2.148438 8.253906 -2.992188 7.640625 -4.046875 L 5.984375 -7.078125 L 7.8125 -7.5 L 10.453125 -3.609375 C 10.910156 -2.941406 11.320312 -2.410156 11.6875 -2.015625 C 12.050781 -1.617188 12.410156 -1.320312 12.765625 -1.125 C 13.128906 -0.925781 13.519531 -0.785156 13.9375 -0.703125 L 13.921875 0.140625 C 13.753906 0.179688 13.578125 0.207031 13.390625 0.21875 C 13.203125 0.238281 13.019531 0.25 12.84375 0.25 Z M 12.84375 0.25 "/></g></g></g><g fill="#dbbb68" fill-opacity="1"><g transform="translate(202.77165, 215.701774)"><g><path d="M 0.078125 0 L 0.03125 -0.921875 L 1.21875 -1.265625 L 6.25 -13.921875 L 7.671875 -14.765625 L 12.984375 -1.265625 L 14.203125 -0.921875 L 14.140625 0 L 9.203125 0 L 9.15625 -0.921875 L 10.640625 -1.265625 L 9.203125 -4.890625 L 8.9375 -5.640625 L 6.28125 -12.28125 L 6.84375 -12.59375 L 4.296875 -5.640625 L 4.03125 -4.90625 L 2.734375 -1.265625 L 4.21875 -0.921875 L 4.171875 0 Z M 3.484375 -4.515625 L 3.484375 -5.8125 C 3.796875 -5.789062 4.21875 -5.769531 4.75 -5.75 C 5.289062 -5.738281 5.953125 -5.734375 6.734375 -5.734375 C 7.503906 -5.734375 8.160156 -5.738281 8.703125 -5.75 C 9.242188 -5.769531 9.664062 -5.789062 9.96875 -5.8125 L 9.96875 -4.515625 C 9.40625 -4.535156 8.851562 -4.546875 8.3125 -4.546875 C 7.769531 -4.554688 7.242188 -4.5625 6.734375 -4.5625 C 6.242188 -4.5625 5.734375 -4.554688 5.203125 -4.546875 C 4.679688 -4.546875 4.109375 -4.535156 3.484375 -4.515625 Z M 3.484375 -4.515625 "/></g></g></g><g fill="#dbbb68" fill-opacity="1"><g transform="translate(216.978413, 215.701774)"><g><path d="M 8.984375 0.21875 C 7.566406 0.21875 6.273438 -0.0507812 5.109375 -0.59375 C 3.953125 -1.144531 3.019531 -1.957031 2.3125 -3.03125 C 1.613281 -4.113281 1.265625 -5.457031 1.265625 -7.0625 C 1.265625 -8.082031 1.441406 -9.039062 1.796875 -9.9375 C 2.160156 -10.84375 2.6875 -11.640625 3.375 -12.328125 C 4.070312 -13.023438 4.914062 -13.566406 5.90625 -13.953125 C 6.894531 -14.347656 8.023438 -14.546875 9.296875 -14.546875 C 9.960938 -14.546875 10.671875 -14.476562 11.421875 -14.34375 C 12.171875 -14.21875 12.835938 -14.035156 13.421875 -13.796875 L 13.59375 -10.453125 L 12.5 -10.359375 L 11.765625 -12.671875 C 11.453125 -12.878906 11.046875 -13.035156 10.546875 -13.140625 C 10.046875 -13.253906 9.554688 -13.3125 9.078125 -13.3125 C 7.859375 -13.3125 6.863281 -13.046875 6.09375 -12.515625 C 5.320312 -11.984375 4.75 -11.273438 4.375 -10.390625 C 4.007812 -9.515625 3.828125 -8.550781 3.828125 -7.5 C 3.828125 -6.113281 4.066406 -4.941406 4.546875 -3.984375 C 5.035156 -3.023438 5.6875 -2.300781 6.5 -1.8125 C 7.320312 -1.320312 8.234375 -1.078125 9.234375 -1.078125 C 9.734375 -1.078125 10.195312 -1.132812 10.625 -1.25 C 11.0625 -1.363281 11.472656 -1.535156 11.859375 -1.765625 L 12.9375 -4.046875 L 14.0625 -3.9375 L 13.375 -0.859375 C 12.8125 -0.578125 12.148438 -0.328125 11.390625 -0.109375 C 10.628906 0.109375 9.828125 0.21875 8.984375 0.21875 Z M 8.984375 0.21875 "/></g></g></g><g fill="#dbbb68" fill-opacity="1"><g transform="translate(231.722202, 215.701774)"><g><path d="M 8.859375 0 L 8.8125 -0.921875 L 10.28125 -1.171875 C 10.164062 -1.347656 10.03125 -1.535156 9.875 -1.734375 C 9.71875 -1.929688 9.535156 -2.148438 9.328125 -2.390625 L 5.59375 -6.640625 L 4.5625 -6.640625 L 4.5625 -7.546875 L 5.859375 -7.890625 L 10.890625 -13.09375 L 9.40625 -13.40625 L 9.453125 -14.328125 L 14.15625 -14.328125 L 14.203125 -13.359375 L 12.796875 -13.109375 L 6.90625 -7.546875 L 6.984375 -8.28125 L 11.640625 -3.078125 C 11.921875 -2.785156 12.160156 -2.519531 12.359375 -2.28125 C 12.566406 -2.039062 12.75 -1.835938 12.90625 -1.671875 C 13.070312 -1.503906 13.210938 -1.363281 13.328125 -1.25 L 14.546875 -0.953125 L 14.546875 0 Z M 1.25 0 L 1.171875 -0.921875 L 2.65625 -1.265625 C 2.6875 -1.378906 2.710938 -1.738281 2.734375 -2.34375 C 2.753906 -2.945312 2.765625 -3.785156 2.765625 -4.859375 L 2.765625 -9.453125 C 2.765625 -10.179688 2.757812 -10.800781 2.75 -11.3125 C 2.738281 -11.820312 2.726562 -12.222656 2.71875 -12.515625 C 2.707031 -12.816406 2.6875 -13 2.65625 -13.0625 L 1.140625 -13.40625 L 1.21875 -14.328125 L 6.421875 -14.328125 L 6.46875 -13.40625 L 4.984375 -13.0625 C 4.953125 -13.007812 4.921875 -12.84375 4.890625 -12.5625 C 4.867188 -12.289062 4.851562 -11.898438 4.84375 -11.390625 C 4.832031 -10.878906 4.828125 -10.234375 4.828125 -9.453125 L 4.828125 -4.859375 C 4.828125 -3.785156 4.835938 -2.945312 4.859375 -2.34375 C 4.890625 -1.738281 4.914062 -1.378906 4.9375 -1.265625 L 6.421875 -0.921875 L 6.34375 0 Z M 1.25 0 "/></g></g></g><g fill="#dbbb68" fill-opacity="1"><g transform="translate(128.752189, 236.151474)"><g><path d="M 7.03125 -8.015625 L 7.328125 -5.8125 L 6.734375 -5.75 L 6.15625 -7.28125 C 6.082031 -7.300781 6 -7.3125 5.90625 -7.3125 C 5.8125 -7.320312 5.726562 -7.328125 5.65625 -7.328125 L 5.171875 -7.328125 C 5.078125 -7.328125 4.953125 -7.328125 4.796875 -7.328125 C 4.648438 -7.328125 4.507812 -7.320312 4.375 -7.3125 C 4.375 -7.238281 4.375 -7.066406 4.375 -6.796875 C 4.375 -6.535156 4.375 -6.226562 4.375 -5.875 C 4.375 -5.519531 4.375 -5.179688 4.375 -4.859375 L 4.375 -3.03125 C 4.375 -2.457031 4.375 -1.957031 4.375 -1.53125 C 4.382812 -1.113281 4.390625 -0.835938 4.390625 -0.703125 L 5.546875 -0.546875 L 5.5 0 L 2.046875 0 L 2.015625 -0.546875 L 3.15625 -0.703125 C 3.15625 -0.835938 3.160156 -1.113281 3.171875 -1.53125 C 3.179688 -1.957031 3.1875 -2.457031 3.1875 -3.03125 L 3.1875 -4.859375 C 3.1875 -5.179688 3.1875 -5.519531 3.1875 -5.875 C 3.1875 -6.226562 3.1875 -6.535156 3.1875 -6.796875 C 3.1875 -7.066406 3.179688 -7.238281 3.171875 -7.3125 C 3.054688 -7.320312 2.921875 -7.328125 2.765625 -7.328125 C 2.609375 -7.328125 2.488281 -7.328125 2.40625 -7.328125 L 1.875 -7.328125 C 1.800781 -7.328125 1.71875 -7.320312 1.625 -7.3125 C 1.539062 -7.3125 1.460938 -7.300781 1.390625 -7.28125 L 0.828125 -5.734375 L 0.21875 -5.8125 L 0.515625 -8.015625 C 0.617188 -8.003906 0.722656 -7.992188 0.828125 -7.984375 C 0.941406 -7.984375 1.054688 -7.976562 1.171875 -7.96875 C 1.285156 -7.96875 1.394531 -7.96875 1.5 -7.96875 C 1.613281 -7.96875 1.722656 -7.96875 1.828125 -7.96875 L 5.703125 -7.96875 C 5.804688 -7.96875 5.914062 -7.96875 6.03125 -7.96875 C 6.144531 -7.96875 6.253906 -7.96875 6.359375 -7.96875 C 6.472656 -7.976562 6.582031 -7.984375 6.6875 -7.984375 C 6.800781 -7.992188 6.914062 -8.003906 7.03125 -8.015625 Z M 7.03125 -8.015625 "/></g></g></g><g fill="#dbbb68" fill-opacity="1"><g transform="translate(136.305804, 236.151474)"><g><path d="M 0.703125 0 L 0.671875 -0.515625 L 1.5 -0.71875 C 1.5 -0.78125 1.5 -0.875 1.5 -1 C 1.507812 -1.132812 1.515625 -1.289062 1.515625 -1.46875 C 1.515625 -1.65625 1.515625 -1.851562 1.515625 -2.0625 C 1.523438 -2.28125 1.53125 -2.492188 1.53125 -2.703125 L 1.53125 -5.25 C 1.53125 -5.664062 1.523438 -6.015625 1.515625 -6.296875 C 1.515625 -6.585938 1.507812 -6.8125 1.5 -6.96875 C 1.488281 -7.125 1.484375 -7.21875 1.484375 -7.25 L 0.640625 -7.453125 L 0.671875 -7.96875 L 3.65625 -7.96875 C 4.5 -7.96875 5.144531 -7.800781 5.59375 -7.46875 C 6.039062 -7.132812 6.265625 -6.648438 6.265625 -6.015625 C 6.265625 -5.566406 6.140625 -5.164062 5.890625 -4.8125 C 5.648438 -4.46875 5.3125 -4.195312 4.875 -4 C 4.4375 -3.800781 3.9375 -3.703125 3.375 -3.703125 L 2.515625 -3.703125 L 2.515625 -4.3125 L 3.28125 -4.3125 C 3.84375 -4.3125 4.28125 -4.453125 4.59375 -4.734375 C 4.90625 -5.015625 5.0625 -5.40625 5.0625 -5.90625 C 5.0625 -6.382812 4.925781 -6.742188 4.65625 -6.984375 C 4.382812 -7.234375 3.992188 -7.359375 3.484375 -7.359375 L 2.703125 -7.359375 C 2.691406 -7.347656 2.679688 -7.3125 2.671875 -7.25 C 2.671875 -7.195312 2.671875 -7.109375 2.671875 -6.984375 C 2.671875 -6.859375 2.671875 -6.671875 2.671875 -6.421875 C 2.671875 -6.179688 2.671875 -5.859375 2.671875 -5.453125 L 2.671875 -2.703125 C 2.671875 -2.304688 2.671875 -1.976562 2.671875 -1.71875 C 2.679688 -1.457031 2.691406 -1.25 2.703125 -1.09375 C 2.722656 -0.9375 2.734375 -0.8125 2.734375 -0.71875 L 3.546875 -0.515625 L 3.5 0 Z M 7.140625 0.140625 C 6.734375 0.140625 6.375 0.0664062 6.0625 -0.078125 C 5.757812 -0.234375 5.46875 -0.488281 5.1875 -0.84375 C 4.90625 -1.195312 4.59375 -1.664062 4.25 -2.25 L 3.328125 -3.9375 L 4.34375 -4.171875 L 5.8125 -2 C 6.0625 -1.632812 6.285156 -1.335938 6.484375 -1.109375 C 6.691406 -0.890625 6.894531 -0.726562 7.09375 -0.625 C 7.289062 -0.519531 7.507812 -0.441406 7.75 -0.390625 L 7.734375 0.078125 C 7.640625 0.0976562 7.539062 0.113281 7.4375 0.125 C 7.332031 0.132812 7.234375 0.140625 7.140625 0.140625 Z M 7.140625 0.140625 "/></g></g></g><g fill="#dbbb68" fill-opacity="1"><g transform="translate(143.995032, 236.151474)"><g><path d="M 0.046875 0 L 0.015625 -0.515625 L 0.671875 -0.703125 L 3.46875 -7.734375 L 4.265625 -8.203125 L 7.21875 -0.703125 L 7.890625 -0.515625 L 7.859375 0 L 5.109375 0 L 5.09375 -0.515625 L 5.921875 -0.703125 L 5.109375 -2.71875 L 4.96875 -3.140625 L 3.484375 -6.828125 L 3.796875 -7 L 2.390625 -3.140625 L 2.234375 -2.734375 L 1.515625 -0.703125 L 2.34375 -0.515625 L 2.3125 0 Z M 1.9375 -2.515625 L 1.9375 -3.234375 C 2.113281 -3.222656 2.347656 -3.210938 2.640625 -3.203125 C 2.941406 -3.191406 3.3125 -3.1875 3.75 -3.1875 C 4.164062 -3.1875 4.523438 -3.191406 4.828125 -3.203125 C 5.140625 -3.210938 5.375 -3.222656 5.53125 -3.234375 L 5.53125 -2.515625 C 5.226562 -2.515625 4.925781 -2.515625 4.625 -2.515625 C 4.320312 -2.523438 4.03125 -2.53125 3.75 -2.53125 C 3.476562 -2.53125 3.191406 -2.523438 2.890625 -2.515625 C 2.597656 -2.515625 2.28125 -2.515625 1.9375 -2.515625 Z M 1.9375 -2.515625 "/></g></g></g><g fill="#dbbb68" fill-opacity="1"><g transform="translate(151.887678, 236.151474)"><g><path d="M 4.984375 0.125 C 4.203125 0.125 3.488281 -0.0234375 2.84375 -0.328125 C 2.195312 -0.628906 1.675781 -1.082031 1.28125 -1.6875 C 0.894531 -2.289062 0.703125 -3.035156 0.703125 -3.921875 C 0.703125 -4.492188 0.800781 -5.03125 1 -5.53125 C 1.195312 -6.03125 1.488281 -6.472656 1.875 -6.859375 C 2.257812 -7.242188 2.726562 -7.539062 3.28125 -7.75 C 3.832031 -7.96875 4.460938 -8.078125 5.171875 -8.078125 C 5.535156 -8.078125 5.925781 -8.039062 6.34375 -7.96875 C 6.757812 -7.90625 7.128906 -7.804688 7.453125 -7.671875 L 7.5625 -5.8125 L 6.953125 -5.75 L 6.53125 -7.046875 C 6.363281 -7.160156 6.140625 -7.242188 5.859375 -7.296875 C 5.578125 -7.359375 5.304688 -7.390625 5.046875 -7.390625 C 4.367188 -7.390625 3.8125 -7.242188 3.375 -6.953125 C 2.945312 -6.660156 2.628906 -6.269531 2.421875 -5.78125 C 2.222656 -5.289062 2.125 -4.753906 2.125 -4.171875 C 2.125 -3.398438 2.257812 -2.742188 2.53125 -2.203125 C 2.800781 -1.671875 3.160156 -1.269531 3.609375 -1 C 4.066406 -0.726562 4.570312 -0.59375 5.125 -0.59375 C 5.40625 -0.59375 5.664062 -0.625 5.90625 -0.6875 C 6.144531 -0.75 6.375 -0.847656 6.59375 -0.984375 L 7.1875 -2.25 L 7.8125 -2.1875 L 7.4375 -0.46875 C 7.113281 -0.320312 6.742188 -0.1875 6.328125 -0.0625 C 5.910156 0.0625 5.460938 0.125 4.984375 0.125 Z M 4.984375 0.125 "/></g></g></g><g fill="#dbbb68" fill-opacity="1"><g transform="translate(160.078672, 236.151474)"><g><path d="M 4.921875 0 L 4.890625 -0.515625 L 5.703125 -0.65625 C 5.640625 -0.75 5.566406 -0.847656 5.484375 -0.953125 C 5.398438 -1.066406 5.300781 -1.191406 5.1875 -1.328125 L 3.109375 -3.6875 L 2.53125 -3.6875 L 2.53125 -4.1875 L 3.25 -4.375 L 6.046875 -7.265625 L 5.21875 -7.453125 L 5.25 -7.96875 L 7.875 -7.96875 L 7.890625 -7.421875 L 7.109375 -7.28125 L 3.84375 -4.1875 L 3.875 -4.59375 L 6.46875 -1.703125 C 6.625 -1.546875 6.757812 -1.398438 6.875 -1.265625 C 6.988281 -1.140625 7.085938 -1.023438 7.171875 -0.921875 C 7.265625 -0.828125 7.34375 -0.75 7.40625 -0.6875 L 8.078125 -0.53125 L 8.078125 0 Z M 0.6875 0 L 0.65625 -0.515625 L 1.484375 -0.703125 C 1.492188 -0.765625 1.503906 -0.960938 1.515625 -1.296875 C 1.523438 -1.628906 1.53125 -2.097656 1.53125 -2.703125 L 1.53125 -5.25 C 1.53125 -5.65625 1.523438 -6 1.515625 -6.28125 C 1.515625 -6.570312 1.507812 -6.796875 1.5 -6.953125 C 1.5 -7.117188 1.492188 -7.21875 1.484375 -7.25 L 0.640625 -7.453125 L 0.671875 -7.96875 L 3.5625 -7.96875 L 3.59375 -7.453125 L 2.765625 -7.25 C 2.742188 -7.226562 2.726562 -7.140625 2.71875 -6.984375 C 2.707031 -6.828125 2.695312 -6.609375 2.6875 -6.328125 C 2.6875 -6.046875 2.6875 -5.6875 2.6875 -5.25 L 2.6875 -2.703125 C 2.6875 -2.097656 2.691406 -1.628906 2.703125 -1.296875 C 2.722656 -0.960938 2.734375 -0.765625 2.734375 -0.703125 L 3.5625 -0.515625 L 3.53125 0 Z M 0.6875 0 "/></g></g></g><g fill="#dbbb68" fill-opacity="1"><g transform="translate(168.052686, 236.151474)"><g/></g></g><g fill="#dbbb68" fill-opacity="1"><g transform="translate(170.656445, 236.151474)"><g><path d="M 6.671875 -7.25 L 3.890625 -2.953125 L 4.234375 -3.875 L 4.234375 -2.59375 C 4.234375 -2.25 4.234375 -1.960938 4.234375 -1.734375 C 4.242188 -1.503906 4.25 -1.316406 4.25 -1.171875 C 4.257812 -1.035156 4.265625 -0.929688 4.265625 -0.859375 C 4.273438 -0.785156 4.28125 -0.734375 4.28125 -0.703125 L 5.234375 -0.53125 L 5.203125 0 L 2.109375 0 L 2.078125 -0.53125 L 3.03125 -0.703125 C 3.03125 -0.734375 3.035156 -0.785156 3.046875 -0.859375 C 3.054688 -0.929688 3.0625 -1.035156 3.0625 -1.171875 C 3.070312 -1.316406 3.078125 -1.503906 3.078125 -1.734375 C 3.085938 -1.960938 3.09375 -2.25 3.09375 -2.59375 L 3.09375 -3.875 L 3.359375 -2.953125 L 0.671875 -7.25 L 0 -7.453125 L 0.03125 -7.96875 L 2.828125 -7.96875 L 2.875 -7.453125 L 2.046875 -7.25 L 4.046875 -4.0625 L 3.859375 -4.0625 L 5.765625 -7.25 L 4.8125 -7.453125 L 4.859375 -7.96875 L 7.328125 -7.96875 L 7.359375 -7.453125 Z M 6.671875 -7.25 "/></g></g></g><g fill="#dbbb68" fill-opacity="1"><g transform="translate(177.99308, 236.151474)"><g><path d="M 4.734375 0.125 C 3.941406 0.125 3.238281 -0.046875 2.625 -0.390625 C 2.019531 -0.734375 1.546875 -1.210938 1.203125 -1.828125 C 0.859375 -2.441406 0.6875 -3.148438 0.6875 -3.953125 C 0.6875 -4.742188 0.859375 -5.453125 1.203125 -6.078125 C 1.554688 -6.703125 2.039062 -7.191406 2.65625 -7.546875 C 3.28125 -7.898438 3.984375 -8.078125 4.765625 -8.078125 C 5.523438 -8.078125 6.191406 -7.90625 6.765625 -7.5625 C 7.347656 -7.21875 7.800781 -6.742188 8.125 -6.140625 C 8.457031 -5.535156 8.625 -4.835938 8.625 -4.046875 C 8.625 -3.441406 8.519531 -2.882812 8.3125 -2.375 C 8.101562 -1.863281 7.816406 -1.421875 7.453125 -1.046875 C 7.097656 -0.671875 6.6875 -0.378906 6.21875 -0.171875 C 5.75 0.0234375 5.253906 0.125 4.734375 0.125 Z M 4.859375 -0.609375 C 5.359375 -0.609375 5.785156 -0.734375 6.140625 -0.984375 C 6.492188 -1.242188 6.765625 -1.601562 6.953125 -2.0625 C 7.148438 -2.53125 7.25 -3.082031 7.25 -3.71875 C 7.25 -4.445312 7.132812 -5.085938 6.90625 -5.640625 C 6.6875 -6.191406 6.378906 -6.625 5.984375 -6.9375 C 5.597656 -7.25 5.132812 -7.40625 4.59375 -7.40625 C 3.832031 -7.40625 3.226562 -7.117188 2.78125 -6.546875 C 2.332031 -5.972656 2.109375 -5.191406 2.109375 -4.203125 C 2.109375 -3.492188 2.222656 -2.867188 2.453125 -2.328125 C 2.691406 -1.796875 3.019531 -1.375 3.4375 -1.0625 C 3.851562 -0.757812 4.328125 -0.609375 4.859375 -0.609375 Z M 4.859375 -0.609375 "/></g></g></g><g fill="#dbbb68" fill-opacity="1"><g transform="translate(187.296096, 236.151474)"><g><path d="M 0.625 -7.96875 L 3.5 -7.96875 L 3.546875 -7.453125 L 2.703125 -7.25 C 2.703125 -7.207031 2.695312 -7.125 2.6875 -7 C 2.675781 -6.875 2.664062 -6.675781 2.65625 -6.40625 C 2.65625 -6.132812 2.65625 -5.75 2.65625 -5.25 L 2.65625 -3.15625 C 2.664062 -2.59375 2.757812 -2.132812 2.9375 -1.78125 C 3.113281 -1.4375 3.359375 -1.179688 3.671875 -1.015625 C 3.992188 -0.847656 4.359375 -0.765625 4.765625 -0.765625 C 5.160156 -0.765625 5.503906 -0.847656 5.796875 -1.015625 C 6.085938 -1.179688 6.316406 -1.445312 6.484375 -1.8125 C 6.648438 -2.175781 6.734375 -2.65625 6.734375 -3.25 L 6.734375 -5 C 6.734375 -5.40625 6.726562 -5.765625 6.71875 -6.078125 C 6.707031 -6.390625 6.695312 -6.644531 6.6875 -6.84375 C 6.675781 -7.050781 6.660156 -7.1875 6.640625 -7.25 L 5.703125 -7.453125 L 5.734375 -7.96875 L 8.375 -7.96875 L 8.40625 -7.453125 L 7.578125 -7.25 C 7.578125 -7.21875 7.570312 -7.128906 7.5625 -6.984375 C 7.5625 -6.847656 7.554688 -6.617188 7.546875 -6.296875 C 7.546875 -5.984375 7.546875 -5.550781 7.546875 -5 L 7.546875 -3.1875 C 7.546875 -2.425781 7.414062 -1.800781 7.15625 -1.3125 C 6.90625 -0.820312 6.554688 -0.457031 6.109375 -0.21875 C 5.671875 0.0078125 5.175781 0.125 4.625 0.125 C 3.632812 0.125 2.863281 -0.144531 2.3125 -0.6875 C 1.757812 -1.226562 1.484375 -2 1.484375 -3 L 1.484375 -5.25 C 1.484375 -5.75 1.476562 -6.132812 1.46875 -6.40625 C 1.457031 -6.6875 1.445312 -6.890625 1.4375 -7.015625 C 1.4375 -7.140625 1.429688 -7.21875 1.421875 -7.25 L 0.59375 -7.453125 Z M 0.625 -7.96875 "/></g></g></g><g fill="#dbbb68" fill-opacity="1"><g transform="translate(196.300765, 236.151474)"><g><path d="M 0.703125 0 L 0.671875 -0.515625 L 1.5 -0.71875 C 1.5 -0.78125 1.5 -0.875 1.5 -1 C 1.507812 -1.132812 1.515625 -1.289062 1.515625 -1.46875 C 1.515625 -1.65625 1.515625 -1.851562 1.515625 -2.0625 C 1.523438 -2.28125 1.53125 -2.492188 1.53125 -2.703125 L 1.53125 -5.25 C 1.53125 -5.664062 1.523438 -6.015625 1.515625 -6.296875 C 1.515625 -6.585938 1.507812 -6.8125 1.5 -6.96875 C 1.488281 -7.125 1.484375 -7.21875 1.484375 -7.25 L 0.640625 -7.453125 L 0.671875 -7.96875 L 3.65625 -7.96875 C 4.5 -7.96875 5.144531 -7.800781 5.59375 -7.46875 C 6.039062 -7.132812 6.265625 -6.648438 6.265625 -6.015625 C 6.265625 -5.566406 6.140625 -5.164062 5.890625 -4.8125 C 5.648438 -4.46875 5.3125 -4.195312 4.875 -4 C 4.4375 -3.800781 3.9375 -3.703125 3.375 -3.703125 L 2.515625 -3.703125 L 2.515625 -4.3125 L 3.28125 -4.3125 C 3.84375 -4.3125 4.28125 -4.453125 4.59375 -4.734375 C 4.90625 -5.015625 5.0625 -5.40625 5.0625 -5.90625 C 5.0625 -6.382812 4.925781 -6.742188 4.65625 -6.984375 C 4.382812 -7.234375 3.992188 -7.359375 3.484375 -7.359375 L 2.703125 -7.359375 C 2.691406 -7.347656 2.679688 -7.3125 2.671875 -7.25 C 2.671875 -7.195312 2.671875 -7.109375 2.671875 -6.984375 C 2.671875 -6.859375 2.671875 -6.671875 2.671875 -6.421875 C 2.671875 -6.179688 2.671875 -5.859375 2.671875 -5.453125 L 2.671875 -2.703125 C 2.671875 -2.304688 2.671875 -1.976562 2.671875 -1.71875 C 2.679688 -1.457031 2.691406 -1.25 2.703125 -1.09375 C 2.722656 -0.9375 2.734375 -0.8125 2.734375 -0.71875 L 3.546875 -0.515625 L 3.5 0 Z M 7.140625 0.140625 C 6.734375 0.140625 6.375 0.0664062 6.0625 -0.078125 C 5.757812 -0.234375 5.46875 -0.488281 5.1875 -0.84375 C 4.90625 -1.195312 4.59375 -1.664062 4.25 -2.25 L 3.328125 -3.9375 L 4.34375 -4.171875 L 5.8125 -2 C 6.0625 -1.632812 6.285156 -1.335938 6.484375 -1.109375 C 6.691406 -0.890625 6.894531 -0.726562 7.09375 -0.625 C 7.289062 -0.519531 7.507812 -0.441406 7.75 -0.390625 L 7.734375 0.078125 C 7.640625 0.0976562 7.539062 0.113281 7.4375 0.125 C 7.332031 0.132812 7.234375 0.140625 7.140625 0.140625 Z M 7.140625 0.140625 "/></g></g></g><g fill="#dbbb68" fill-opacity="1"><g transform="translate(203.989993, 236.151474)"><g/></g></g><g fill="#dbbb68" fill-opacity="1"><g transform="translate(206.593752, 236.151474)"><g><path d="M 3.046875 0.125 C 2.648438 0.125 2.242188 0.078125 1.828125 -0.015625 C 1.410156 -0.117188 1.066406 -0.25 0.796875 -0.40625 L 0.734375 -2.15625 L 1.3125 -2.21875 L 1.703125 -1 C 1.910156 -0.851562 2.148438 -0.742188 2.421875 -0.671875 C 2.691406 -0.597656 2.96875 -0.5625 3.25 -0.5625 C 3.695312 -0.5625 4.054688 -0.664062 4.328125 -0.875 C 4.597656 -1.09375 4.734375 -1.390625 4.734375 -1.765625 C 4.734375 -2.078125 4.640625 -2.335938 4.453125 -2.546875 C 4.265625 -2.765625 4.015625 -2.953125 3.703125 -3.109375 C 3.398438 -3.265625 3.078125 -3.414062 2.734375 -3.5625 C 2.398438 -3.71875 2.082031 -3.890625 1.78125 -4.078125 C 1.488281 -4.273438 1.242188 -4.515625 1.046875 -4.796875 C 0.859375 -5.085938 0.765625 -5.445312 0.765625 -5.875 C 0.765625 -6.3125 0.882812 -6.695312 1.125 -7.03125 C 1.375 -7.375 1.71875 -7.632812 2.15625 -7.8125 C 2.59375 -8 3.09375 -8.09375 3.65625 -8.09375 C 3.882812 -8.09375 4.109375 -8.082031 4.328125 -8.0625 C 4.554688 -8.039062 4.765625 -8.003906 4.953125 -7.953125 C 5.140625 -7.898438 5.3125 -7.84375 5.46875 -7.78125 L 5.578125 -6.09375 L 4.984375 -6.03125 L 4.609375 -7.171875 C 4.316406 -7.359375 3.945312 -7.453125 3.5 -7.453125 C 3.039062 -7.453125 2.671875 -7.335938 2.390625 -7.109375 C 2.117188 -6.878906 1.984375 -6.582031 1.984375 -6.21875 C 1.984375 -5.894531 2.078125 -5.625 2.265625 -5.40625 C 2.460938 -5.1875 2.710938 -4.992188 3.015625 -4.828125 C 3.316406 -4.660156 3.632812 -4.503906 3.96875 -4.359375 C 4.3125 -4.210938 4.632812 -4.039062 4.9375 -3.84375 C 5.25 -3.65625 5.5 -3.421875 5.6875 -3.140625 C 5.882812 -2.867188 5.984375 -2.53125 5.984375 -2.125 C 5.984375 -1.695312 5.851562 -1.3125 5.59375 -0.96875 C 5.34375 -0.632812 5 -0.367188 4.5625 -0.171875 C 4.125 0.0234375 3.617188 0.125 3.046875 0.125 Z M 3.046875 0.125 "/></g></g></g><g fill="#dbbb68" fill-opacity="1"><g transform="translate(213.08959, 236.151474)"><g><path d="M 7.03125 -8.015625 L 7.328125 -5.8125 L 6.734375 -5.75 L 6.15625 -7.28125 C 6.082031 -7.300781 6 -7.3125 5.90625 -7.3125 C 5.8125 -7.320312 5.726562 -7.328125 5.65625 -7.328125 L 5.171875 -7.328125 C 5.078125 -7.328125 4.953125 -7.328125 4.796875 -7.328125 C 4.648438 -7.328125 4.507812 -7.320312 4.375 -7.3125 C 4.375 -7.238281 4.375 -7.066406 4.375 -6.796875 C 4.375 -6.535156 4.375 -6.226562 4.375 -5.875 C 4.375 -5.519531 4.375 -5.179688 4.375 -4.859375 L 4.375 -3.03125 C 4.375 -2.457031 4.375 -1.957031 4.375 -1.53125 C 4.382812 -1.113281 4.390625 -0.835938 4.390625 -0.703125 L 5.546875 -0.546875 L 5.5 0 L 2.046875 0 L 2.015625 -0.546875 L 3.15625 -0.703125 C 3.15625 -0.835938 3.160156 -1.113281 3.171875 -1.53125 C 3.179688 -1.957031 3.1875 -2.457031 3.1875 -3.03125 L 3.1875 -4.859375 C 3.1875 -5.179688 3.1875 -5.519531 3.1875 -5.875 C 3.1875 -6.226562 3.1875 -6.535156 3.1875 -6.796875 C 3.1875 -7.066406 3.179688 -7.238281 3.171875 -7.3125 C 3.054688 -7.320312 2.921875 -7.328125 2.765625 -7.328125 C 2.609375 -7.328125 2.488281 -7.328125 2.40625 -7.328125 L 1.875 -7.328125 C 1.800781 -7.328125 1.71875 -7.320312 1.625 -7.3125 C 1.539062 -7.3125 1.460938 -7.300781 1.390625 -7.28125 L 0.828125 -5.734375 L 0.21875 -5.8125 L 0.515625 -8.015625 C 0.617188 -8.003906 0.722656 -7.992188 0.828125 -7.984375 C 0.941406 -7.984375 1.054688 -7.976562 1.171875 -7.96875 C 1.285156 -7.96875 1.394531 -7.96875 1.5 -7.96875 C 1.613281 -7.96875 1.722656 -7.96875 1.828125 -7.96875 L 5.703125 -7.96875 C 5.804688 -7.96875 5.914062 -7.96875 6.03125 -7.96875 C 6.144531 -7.96875 6.253906 -7.96875 6.359375 -7.96875 C 6.472656 -7.976562 6.582031 -7.984375 6.6875 -7.984375 C 6.800781 -7.992188 6.914062 -8.003906 7.03125 -8.015625 Z M 7.03125 -8.015625 "/></g></g></g><g fill="#dbbb68" fill-opacity="1"><g transform="translate(220.643205, 236.151474)"><g><path d="M 0.625 -7.96875 L 3.5 -7.96875 L 3.546875 -7.453125 L 2.703125 -7.25 C 2.703125 -7.207031 2.695312 -7.125 2.6875 -7 C 2.675781 -6.875 2.664062 -6.675781 2.65625 -6.40625 C 2.65625 -6.132812 2.65625 -5.75 2.65625 -5.25 L 2.65625 -3.15625 C 2.664062 -2.59375 2.757812 -2.132812 2.9375 -1.78125 C 3.113281 -1.4375 3.359375 -1.179688 3.671875 -1.015625 C 3.992188 -0.847656 4.359375 -0.765625 4.765625 -0.765625 C 5.160156 -0.765625 5.503906 -0.847656 5.796875 -1.015625 C 6.085938 -1.179688 6.316406 -1.445312 6.484375 -1.8125 C 6.648438 -2.175781 6.734375 -2.65625 6.734375 -3.25 L 6.734375 -5 C 6.734375 -5.40625 6.726562 -5.765625 6.71875 -6.078125 C 6.707031 -6.390625 6.695312 -6.644531 6.6875 -6.84375 C 6.675781 -7.050781 6.660156 -7.1875 6.640625 -7.25 L 5.703125 -7.453125 L 5.734375 -7.96875 L 8.375 -7.96875 L 8.40625 -7.453125 L 7.578125 -7.25 C 7.578125 -7.21875 7.570312 -7.128906 7.5625 -6.984375 C 7.5625 -6.847656 7.554688 -6.617188 7.546875 -6.296875 C 7.546875 -5.984375 7.546875 -5.550781 7.546875 -5 L 7.546875 -3.1875 C 7.546875 -2.425781 7.414062 -1.800781 7.15625 -1.3125 C 6.90625 -0.820312 6.554688 -0.457031 6.109375 -0.21875 C 5.671875 0.0078125 5.175781 0.125 4.625 0.125 C 3.632812 0.125 2.863281 -0.144531 2.3125 -0.6875 C 1.757812 -1.226562 1.484375 -2 1.484375 -3 L 1.484375 -5.25 C 1.484375 -5.75 1.476562 -6.132812 1.46875 -6.40625 C 1.457031 -6.6875 1.445312 -6.890625 1.4375 -7.015625 C 1.4375 -7.140625 1.429688 -7.21875 1.421875 -7.25 L 0.59375 -7.453125 Z M 0.625 -7.96875 "/></g></g></g><g fill="#dbbb68" fill-opacity="1"><g transform="translate(229.647874, 236.151474)"><g><path d="M 0.671875 -7.96875 L 3.953125 -7.96875 C 5.378906 -7.96875 6.488281 -7.625 7.28125 -6.9375 C 8.082031 -6.257812 8.484375 -5.300781 8.484375 -4.0625 C 8.484375 -3.269531 8.296875 -2.566406 7.921875 -1.953125 C 7.554688 -1.335938 7.046875 -0.859375 6.390625 -0.515625 C 5.734375 -0.171875 4.972656 0 4.109375 0 L 0.671875 0 L 0.640625 -0.515625 L 1.46875 -0.703125 C 1.476562 -0.785156 1.488281 -1.015625 1.5 -1.390625 C 1.519531 -1.773438 1.53125 -2.210938 1.53125 -2.703125 L 1.53125 -5.25 C 1.53125 -5.789062 1.519531 -6.242188 1.5 -6.609375 C 1.488281 -6.984375 1.476562 -7.195312 1.46875 -7.25 L 0.640625 -7.453125 Z M 2.71875 -7.234375 C 2.71875 -7.140625 2.710938 -7.019531 2.703125 -6.875 C 2.703125 -6.738281 2.695312 -6.546875 2.6875 -6.296875 C 2.6875 -6.046875 2.6875 -5.695312 2.6875 -5.25 L 2.6875 -2.703125 C 2.6875 -2.429688 2.6875 -2.175781 2.6875 -1.9375 C 2.695312 -1.695312 2.707031 -1.476562 2.71875 -1.28125 C 2.726562 -1.09375 2.738281 -0.9375 2.75 -0.8125 C 3.039062 -0.78125 3.300781 -0.75 3.53125 -0.71875 C 3.757812 -0.695312 3.984375 -0.6875 4.203125 -0.6875 C 5.160156 -0.6875 5.890625 -0.941406 6.390625 -1.453125 C 6.890625 -1.960938 7.140625 -2.703125 7.140625 -3.671875 C 7.140625 -4.265625 7.066406 -4.785156 6.921875 -5.234375 C 6.773438 -5.691406 6.554688 -6.070312 6.265625 -6.375 C 5.984375 -6.6875 5.632812 -6.921875 5.21875 -7.078125 C 4.8125 -7.242188 4.335938 -7.328125 3.796875 -7.328125 C 3.628906 -7.328125 3.457031 -7.316406 3.28125 -7.296875 C 3.101562 -7.285156 2.914062 -7.265625 2.71875 -7.234375 Z M 2.71875 -7.234375 "/></g></g></g><g fill="#dbbb68" fill-opacity="1"><g transform="translate(238.896645, 236.151474)"><g><path d="M 6.671875 -7.25 L 3.890625 -2.953125 L 4.234375 -3.875 L 4.234375 -2.59375 C 4.234375 -2.25 4.234375 -1.960938 4.234375 -1.734375 C 4.242188 -1.503906 4.25 -1.316406 4.25 -1.171875 C 4.257812 -1.035156 4.265625 -0.929688 4.265625 -0.859375 C 4.273438 -0.785156 4.28125 -0.734375 4.28125 -0.703125 L 5.234375 -0.53125 L 5.203125 0 L 2.109375 0 L 2.078125 -0.53125 L 3.03125 -0.703125 C 3.03125 -0.734375 3.035156 -0.785156 3.046875 -0.859375 C 3.054688 -0.929688 3.0625 -1.035156 3.0625 -1.171875 C 3.070312 -1.316406 3.078125 -1.503906 3.078125 -1.734375 C 3.085938 -1.960938 3.09375 -2.25 3.09375 -2.59375 L 3.09375 -3.875 L 3.359375 -2.953125 L 0.671875 -7.25 L 0 -7.453125 L 0.03125 -7.96875 L 2.828125 -7.96875 L 2.875 -7.453125 L 2.046875 -7.25 L 4.046875 -4.0625 L 3.859375 -4.0625 L 5.765625 -7.25 L 4.8125 -7.453125 L 4.859375 -7.96875 L 7.328125 -7.96875 L 7.359375 -7.453125 Z M 6.671875 -7.25 "/></g></g></g></svg>